<svg width="60" height="60" viewBox="0 0 60 60" fill="none" xmlns="http://www.w3.org/2000/svg">
<path d="M55.3125 21.5625C55.3125 28.7344 51.1641 36.0938 42.9844 43.4531C39.2701 46.7922 35.2258 49.7449 30.9141 52.2656C30.634 52.4195 30.3196 52.5002 30 52.5002C29.6804 52.5002 29.366 52.4195 29.0859 52.2656C28.0781 51.7031 4.6875 38.4141 4.6875 21.5625C4.6875 18.611 5.61615 15.7344 7.34191 13.34C9.06766 10.9457 11.503 9.15498 14.303 8.22164C17.1031 7.2883 20.1258 7.25962 22.943 8.13965C25.7602 9.01969 28.2291 10.7638 30 13.125C31.7709 10.7638 34.2398 9.01969 37.057 8.13965C39.8742 7.25962 42.8969 7.2883 45.697 8.22164C48.497 9.15498 50.9323 10.9457 52.6581 13.34C54.3839 15.7344 55.3125 18.611 55.3125 21.5625Z" fill="black"/>
</svg>
