<svg width="62" height="62" viewBox="0 0 62 62" fill="none" xmlns="http://www.w3.org/2000/svg">
<path d="M61 31.1837C61 14.5133 47.5692 1 31.0037 1C14.4308 1.00375 1 14.5133 1 31.1875C1 46.2493 11.9711 58.7353 26.3093 61V39.9089H18.6978V31.1875H26.3168V24.5321C26.3168 16.9693 30.7975 12.7923 37.6479 12.7923C40.9325 12.7923 44.3633 13.381 44.3633 13.381V20.805H40.58C36.8568 20.805 35.6944 23.1335 35.6944 25.5219V31.1837H44.0109L42.6835 39.9051H35.6907V60.9963C50.0289 58.7315 61 46.2456 61 31.1837Z" fill="black"/>
<path d="M31.0037 0.75H31.0037C14.2913 0.753781 0.75 14.3766 0.75 31.1875C0.75 46.3732 11.8114 58.9632 26.2703 61.2469L26.5593 61.2926V61V39.9089V39.6589H26.3093H18.9478V31.4375H26.3168H26.5668V31.1875V24.5321C26.5668 20.8002 27.6714 17.9345 29.5908 16.0023C31.5104 14.07 34.2737 13.0423 37.6479 13.0423C39.2768 13.0423 40.9452 13.1884 42.2085 13.3349C42.8397 13.4082 43.3685 13.4814 43.7393 13.5363C43.8922 13.5589 44.0182 13.5784 44.1133 13.5935V20.555H40.58C38.6635 20.555 37.3654 21.1566 36.5513 22.105C35.7433 23.0462 35.4444 24.2917 35.4444 25.5219V31.1837V31.4337H35.6944H43.7199L42.4687 39.6551H35.6907H35.4407V39.9051V60.9963V61.2888L35.7297 61.2432C50.1886 58.9594 61.25 46.3694 61.25 31.1837C61.25 14.3767 47.7087 0.75 31.0037 0.75Z" stroke="black" stroke-opacity="0.32" stroke-width="0.5"/>
</svg>
