<svg width="904" height="259" viewBox="0 0 904 259" fill="none" xmlns="http://www.w3.org/2000/svg">
<g filter="url(#filter0_i_69_57)">
<path fill-rule="evenodd" clip-rule="evenodd" d="M0 14.7143L30.1333 32.1633C60.2667 49.6122 120.533 84.5102 180.8 78.6939C241.067 72.8775 301.333 26.3469 361.6 8.89795C421.867 -8.55103 482.133 3.08162 542.4 14.7143C602.667 26.3469 662.933 37.9796 723.2 49.6122C783.467 61.2449 843.733 72.8775 873.867 78.6939L904 84.5102V259H873.867C843.733 259 783.467 259 723.2 259C662.933 259 602.667 259 542.4 259C482.133 259 421.867 259 361.6 259C301.333 259 241.067 259 180.8 259C120.533 259 60.2667 259 30.1333 259H0V14.7143Z" fill="#97B8A5"/>
</g>
<defs>
<filter id="filter0_i_69_57" x="0" y="0" width="904" height="261" filterUnits="userSpaceOnUse" color-interpolation-filters="sRGB">
<feFlood flood-opacity="0" result="BackgroundImageFix"/>
<feBlend mode="normal" in="SourceGraphic" in2="BackgroundImageFix" result="shape"/>
<feColorMatrix in="SourceAlpha" type="matrix" values="0 0 0 0 0 0 0 0 0 0 0 0 0 0 0 0 0 0 127 0" result="hardAlpha"/>
<feOffset dy="2"/>
<feGaussianBlur stdDeviation="5"/>
<feComposite in2="hardAlpha" operator="arithmetic" k2="-1" k3="1"/>
<feColorMatrix type="matrix" values="0 0 0 0 0.276563 0 0 0 0 0.491667 0 0 0 0 0.367819 0 0 0 0.3 0"/>
<feBlend mode="normal" in2="shape" result="effect1_innerShadow_69_57"/>
</filter>
</defs>
</svg>
