<svg width="52" height="52" viewBox="0 0 52 52" fill="none" xmlns="http://www.w3.org/2000/svg">
<path d="M25.59 1C18.8056 1 17.9525 1.03125 15.2868 1.15C12.6212 1.275 10.8056 1.69375 9.21497 2.3125C7.54651 2.94006 6.03525 3.92446 4.78684 5.19688C3.5152 6.44593 2.53093 7.957 1.90247 9.625C1.28372 11.2125 0.861841 13.0312 0.739966 15.6875C0.621216 18.3594 0.589966 19.2094 0.589966 26.0031C0.589966 32.7906 0.621216 33.6406 0.739966 36.3063C0.864966 38.9688 1.28372 40.7844 1.90247 42.375C2.54309 44.0187 3.39622 45.4125 4.78684 46.8031C6.17434 48.1937 7.56809 49.05 9.21184 49.6875C10.8056 50.3063 12.6181 50.7281 15.2806 50.85C17.9493 50.9688 18.7993 51 25.59 51C32.3806 51 33.2275 50.9688 35.8962 50.85C38.5556 50.725 40.3775 50.3063 41.9681 49.6875C43.6355 49.0596 45.1456 48.0752 46.3931 46.8031C47.7837 45.4125 48.6368 44.0187 49.2775 42.375C49.8931 40.7844 50.315 38.9688 50.44 36.3063C50.5587 33.6406 50.59 32.7906 50.59 26C50.59 19.2094 50.5587 18.3594 50.44 15.6906C50.315 13.0313 49.8931 11.2125 49.2775 9.625C48.6491 7.95695 47.6648 6.44586 46.3931 5.19688C45.1451 3.92399 43.6337 2.93952 41.965 2.3125C40.3712 1.69375 38.5525 1.27187 35.8931 1.15C33.2243 1.03125 32.3775 1 25.5837 1H25.5931H25.59ZM23.3493 5.50625H25.5931C32.2681 5.50625 33.0587 5.52813 35.6931 5.65C38.1306 5.75938 39.4556 6.16875 40.3368 6.50938C41.5025 6.9625 42.3368 7.50625 43.2118 8.38125C44.0868 9.25625 44.6275 10.0875 45.0806 11.2563C45.4243 12.1344 45.8306 13.4594 45.94 15.8969C46.0618 18.5312 46.0868 19.3219 46.0868 25.9937C46.0868 32.6656 46.0618 33.4594 45.94 36.0938C45.8306 38.5312 45.4212 39.8531 45.0806 40.7344C44.6798 41.8199 44.0401 42.8014 43.2087 43.6063C42.3337 44.4813 41.5025 45.0219 40.3337 45.475C39.4587 45.8188 38.1337 46.225 35.6931 46.3375C33.0587 46.4563 32.2681 46.4844 25.5931 46.4844C18.9181 46.4844 18.1243 46.4563 15.49 46.3375C13.0525 46.225 11.7306 45.8188 10.8493 45.475C9.7634 45.0748 8.78098 44.4362 7.97434 43.6063C7.14231 42.8001 6.5016 41.8177 6.09934 40.7313C5.75872 39.8531 5.34934 38.5281 5.23997 36.0906C5.12122 33.4562 5.09622 32.6656 5.09622 25.9875C5.09622 19.3125 5.12122 18.525 5.23997 15.8906C5.35247 13.4531 5.75872 12.1281 6.10247 11.2469C6.55559 10.0813 7.09934 9.24687 7.97434 8.37187C8.84934 7.49687 9.68059 6.95625 10.8493 6.50313C11.7306 6.15938 13.0525 5.75313 15.49 5.64062C17.7962 5.53438 18.69 5.50313 23.3493 5.5V5.50625ZM38.9368 9.65625C38.5429 9.65625 38.1528 9.73385 37.7888 9.88461C37.4248 10.0354 37.0941 10.2564 36.8155 10.5349C36.5369 10.8135 36.316 11.1442 36.1652 11.5082C36.0144 11.8722 35.9368 12.2623 35.9368 12.6562C35.9368 13.0502 36.0144 13.4403 36.1652 13.8043C36.316 14.1683 36.5369 14.499 36.8155 14.7776C37.0941 15.0561 37.4248 15.2771 37.7888 15.4279C38.1528 15.5787 38.5429 15.6562 38.9368 15.6562C39.7325 15.6562 40.4956 15.3402 41.0582 14.7776C41.6208 14.215 41.9368 13.4519 41.9368 12.6562C41.9368 11.8606 41.6208 11.0975 41.0582 10.5349C40.4956 9.97232 39.7325 9.65625 38.9368 9.65625ZM25.5931 13.1625C23.8902 13.1359 22.199 13.4484 20.618 14.0817C19.037 14.715 17.5978 15.6565 16.3842 16.8513C15.1705 18.0462 14.2067 19.4705 13.5488 21.0414C12.891 22.6124 12.5522 24.2985 12.5522 26.0016C12.5522 27.7047 12.891 29.3908 13.5488 30.9617C14.2067 32.5326 15.1705 33.957 16.3842 35.1518C17.5978 36.3467 19.037 37.2881 20.618 37.9214C22.199 38.5547 23.8902 38.8672 25.5931 38.8406C28.9635 38.788 32.1781 37.4122 34.543 35.0102C36.9079 32.6081 38.2334 29.3724 38.2334 26.0016C38.2334 22.6307 36.9079 19.395 34.543 16.993C32.1781 14.5909 28.9635 13.2151 25.5931 13.1625ZM25.5931 17.6656C27.8035 17.6656 29.9234 18.5437 31.4864 20.1067C33.0494 21.6697 33.9275 23.7896 33.9275 26C33.9275 28.2104 33.0494 30.3303 31.4864 31.8933C29.9234 33.4563 27.8035 34.3344 25.5931 34.3344C23.3827 34.3344 21.2628 33.4563 19.6998 31.8933C18.1368 30.3303 17.2587 28.2104 17.2587 26C17.2587 23.7896 18.1368 21.6697 19.6998 20.1067C21.2628 18.5437 23.3827 17.6656 25.5931 17.6656Z" fill="white"/>
<path d="M15.2751 0.900274L15.2757 0.900247C17.946 0.781292 18.8036 0.750019 25.5837 0.75L15.2751 0.900274ZM15.2751 0.900274C12.587 1.02633 10.7445 1.44941 9.12564 2.079C7.42435 2.71913 5.88328 3.72287 4.61001 5.02014C3.31361 6.29399 2.31004 7.83478 1.66903 9.53551C1.03944 11.1512 0.613152 12.9969 0.490228 15.676L0.490212 15.6764M15.2751 0.900274L0.490212 15.6764M0.490212 15.6764C0.371221 18.3537 0.339966 19.2079 0.339966 26.0031C0.339966 32.7921 0.371221 33.6463 0.490213 36.3174L0.490241 36.318M0.490212 15.6764L0.490241 36.318M0.490241 36.318C0.61633 39.0037 1.03961 40.8464 1.66947 42.4656L1.66953 42.4658M0.490241 36.318L1.66953 42.4658M1.66953 42.4658C2.32171 44.1392 3.19305 45.5628 4.60987 46.9797M1.66953 42.4658L4.60987 46.9797M9.21184 49.6875C10.8056 50.3063 12.6181 50.7281 15.2806 50.85M9.21184 49.6875C7.56809 49.05 6.17434 48.1937 4.78684 46.8031M9.21184 49.6875L9.12136 49.9206C9.12139 49.9206 9.12142 49.9206 9.12144 49.9206M9.21184 49.6875L9.12144 49.9206M15.2806 50.85L1.90247 42.375C2.54309 44.0187 3.39622 45.4125 4.78684 46.8031M15.2806 50.85C17.9493 50.9688 18.7993 51 25.59 51C32.3806 51 33.2275 50.9688 35.8962 50.85H15.2806ZM4.78684 46.8031L4.60987 46.9797M4.78684 46.8031L4.61006 46.9799C4.61 46.9798 4.60993 46.9798 4.60987 46.9797M9.12144 49.9206C10.7434 50.5503 12.583 50.9768 15.2692 51.0997L15.2695 51.0998C17.9437 51.2187 18.7979 51.25 25.59 51.25C32.382 51.25 33.2332 51.2187 35.9073 51.0998L35.908 51.0997C38.5898 50.9737 40.4385 50.5506 42.0575 49.921M9.12144 49.9206L42.0575 49.921M42.0575 49.921C43.7581 49.2804 45.2984 48.2763 46.5708 46.9789C47.9872 45.5623 48.8583 44.1389 49.5104 42.4658L49.5106 42.4652C50.1371 40.8465 50.5636 39.004 50.6897 36.318L50.6897 36.3174C50.8087 33.6463 50.84 32.7921 50.84 26C50.84 19.2079 50.8087 18.3537 50.6897 15.6795L50.6897 15.6789C50.5636 12.9969 50.1374 11.1514 49.5111 9.53598C48.8702 7.83506 47.8666 6.2941 46.57 5.02022C45.2971 3.72243 43.7559 2.71858 42.0543 2.07899C40.4325 1.44951 38.5869 1.02319 35.9045 0.900262L35.9042 0.900247C33.2313 0.78131 32.3797 0.750029 25.5931 0.75C25.5921 0.75 25.591 0.75 25.59 0.75L42.0575 49.921ZM23.0993 5.75625V5.7502C18.6598 5.75428 17.761 5.78626 15.5015 5.89036L23.0993 5.75625ZM23.0993 5.75625H23.3493M23.0993 5.75625H23.3493M23.3493 5.75625H25.5931C32.2673 5.75625 33.0532 5.77814 35.6815 5.89973L35.6819 5.89975M23.3493 5.75625L35.6819 5.89975M35.6819 5.89975C38.0911 6.00785 39.3894 6.41123 40.2463 6.74239L35.6819 5.89975ZM44.8478 11.3474L44.8475 11.3466C44.4068 10.2099 43.8852 9.40817 43.0351 8.55803C42.1849 7.70786 41.38 7.18319 40.2467 6.74256L44.8478 11.3474ZM44.8478 11.3474C45.1816 12.2 45.5821 13.498 45.6902 15.9081L45.6902 15.9084M44.8478 11.3474L45.6902 15.9084M45.6902 15.9084C45.8118 18.5369 45.8368 19.3229 45.8368 25.9937C45.8368 32.6646 45.8118 33.4537 45.6902 36.0822L45.6902 36.0825M45.6902 15.9084L45.6902 36.0825M45.6902 36.0825C45.5821 38.4921 45.1786 39.7873 44.8474 40.6442L44.8461 40.6478M45.6902 36.0825L44.8461 40.6478M44.8461 40.6478C44.4582 41.6981 43.8392 42.6478 43.0348 43.4266L43.0348 43.4266M44.8461 40.6478L43.0348 43.4266M43.0348 43.4266L43.0319 43.4295M43.0348 43.4266L43.0319 43.4295M43.0319 43.4295C42.1818 44.2796 41.3801 44.8012 40.2433 45.2419L40.2423 45.2423M43.0319 43.4295L40.2423 45.2423M40.2423 45.2423C39.3931 45.5759 38.0951 45.9765 35.6818 46.0878L40.2423 45.2423ZM49.2775 42.375C49.8931 40.7844 50.315 38.9688 50.44 36.3063C50.5587 33.6406 50.59 32.7906 50.59 26C50.59 19.2094 50.5587 18.3594 50.44 15.6906L49.2775 42.375ZM38.9368 9.40625C38.51 9.40625 38.0874 9.49031 37.6931 9.65364C37.2988 9.81697 36.9405 10.0564 36.6387 10.3582C36.337 10.6599 36.0976 11.0182 35.9342 11.4125C35.7709 11.8068 35.6868 12.2295 35.6868 12.6562C35.6868 13.083 35.7709 13.5057 35.9342 13.9C36.0976 14.2943 36.337 14.6526 36.6387 14.9543C36.9405 15.2561 37.2988 15.4955 37.6931 15.6589C38.0874 15.8222 38.51 15.9062 38.9368 15.9062C39.7988 15.9062 40.6254 15.5638 41.2349 14.9543C41.8444 14.3449 42.1868 13.5182 42.1868 12.6562C42.1868 11.7943 41.8444 10.9676 41.2349 10.3582C40.6254 9.74866 39.7988 9.40625 38.9368 9.40625ZM25.597 12.9125C23.8609 12.8854 22.1368 13.204 20.5251 13.8496C18.9133 14.4952 17.4461 15.4551 16.2088 16.6732C14.9715 17.8913 13.9889 19.3434 13.3182 20.9449C12.6476 22.5464 12.3022 24.2653 12.3022 26.0016C12.3022 27.7378 12.6476 29.4568 13.3182 31.0583C13.9889 32.6598 14.9715 34.1118 16.2088 35.33C17.4461 36.5481 18.9133 37.5079 20.5251 38.1535C22.1368 38.7991 23.8609 39.1177 25.597 39.0906C29.0331 39.037 32.3102 37.6344 34.7212 35.1856C37.1321 32.7367 38.4834 29.438 38.4834 26.0016C38.4834 22.5651 37.1321 19.2664 34.7212 16.8176C32.3102 14.3687 29.0331 12.9661 25.597 12.9125ZM25.5931 17.9156C27.7372 17.9156 29.7935 18.7674 31.3096 20.2835C32.8257 21.7996 33.6775 23.8559 33.6775 26C33.6775 28.1441 32.8257 30.2004 31.3096 31.7165C29.7935 33.2326 27.7372 34.0844 25.5931 34.0844C23.449 34.0844 21.3927 33.2326 19.8766 31.7165C18.3605 30.2004 17.5087 28.1441 17.5087 26C17.5087 23.8559 18.3605 21.7996 19.8766 20.2835C21.3927 18.7674 23.449 17.9156 25.5931 17.9156Z" stroke="black" stroke-opacity="0.32" stroke-width="0.5"/>
</svg>
