<svg width="62" height="62" viewBox="0 0 62 62" fill="none" xmlns="http://www.w3.org/2000/svg">
<path d="M31 1C22.8587 1 21.835 1.0375 18.6362 1.18C15.4375 1.33 13.2587 1.8325 11.35 2.575C9.34785 3.32807 7.53434 4.50935 6.03625 6.03625C4.51029 7.53511 3.32915 9.3484 2.575 11.35C1.8325 13.255 1.32625 15.4375 1.18 18.625C1.0375 21.8312 1 22.8513 1 31.0038C1 39.1488 1.0375 40.1688 1.18 43.3675C1.33 46.5625 1.8325 48.7412 2.575 50.65C3.34375 52.6225 4.3675 54.295 6.03625 55.9637C7.70125 57.6325 9.37375 58.66 11.3463 59.425C13.2587 60.1675 15.4338 60.6737 18.6287 60.82C21.8313 60.9625 22.8512 61 31 61C39.1488 61 40.165 60.9625 43.3675 60.82C46.5588 60.67 48.745 60.1675 50.6538 59.425C52.6546 58.6716 54.4668 57.4903 55.9637 55.9637C57.6325 54.295 58.6562 52.6225 59.425 50.65C60.1637 48.7412 60.67 46.5625 60.82 43.3675C60.9625 40.1688 61 39.1488 61 31C61 22.8512 60.9625 21.8313 60.82 18.6287C60.67 15.4375 60.1637 13.255 59.425 11.35C58.671 9.34834 57.4898 7.53503 55.9637 6.03625C54.4661 4.50878 52.6525 3.32742 50.65 2.575C48.7375 1.8325 46.555 1.32625 43.3638 1.18C40.1613 1.0375 39.145 1 30.9925 1H31.0038H31ZM28.3113 6.4075H31.0038C39.0138 6.4075 39.9625 6.43375 43.1237 6.58C46.0487 6.71125 47.6387 7.2025 48.6963 7.61125C50.095 8.155 51.0962 8.8075 52.1462 9.8575C53.1963 10.9075 53.845 11.905 54.3888 13.3075C54.8013 14.3612 55.2887 15.9513 55.42 18.8763C55.5662 22.0375 55.5962 22.9862 55.5962 30.9925C55.5962 38.9987 55.5662 39.9512 55.42 43.1125C55.2887 46.0375 54.7975 47.6237 54.3888 48.6813C53.9078 49.9838 53.1401 51.1616 52.1425 52.1275C51.0925 53.1775 50.095 53.8263 48.6925 54.37C47.6425 54.7825 46.0525 55.27 43.1237 55.405C39.9625 55.5475 39.0138 55.5813 31.0038 55.5813C22.9938 55.5813 22.0413 55.5475 18.88 55.405C15.955 55.27 14.3687 54.7825 13.3112 54.37C12.0081 53.8897 10.8292 53.1234 9.86125 52.1275C8.86282 51.1601 8.09396 49.9812 7.61125 48.6775C7.2025 47.6237 6.71125 46.0337 6.58 43.1087C6.4375 39.9475 6.4075 38.9987 6.4075 30.985C6.4075 22.975 6.4375 22.03 6.58 18.8687C6.715 15.9437 7.2025 14.3538 7.615 13.2963C8.15875 11.8975 8.81125 10.8962 9.86125 9.84625C10.9113 8.79625 11.9087 8.1475 13.3112 7.60375C14.3687 7.19125 15.955 6.70375 18.88 6.56875C21.6475 6.44125 22.72 6.40375 28.3113 6.4V6.4075ZM47.0163 11.3875C46.5435 11.3875 46.0754 11.4806 45.6386 11.6615C45.2018 11.8425 44.805 12.1076 44.4707 12.4419C44.1364 12.7762 43.8712 13.1731 43.6903 13.6098C43.5094 14.0466 43.4162 14.5147 43.4162 14.9875C43.4162 15.4603 43.5094 15.9284 43.6903 16.3652C43.8712 16.8019 44.1364 17.1988 44.4707 17.5331C44.805 17.8674 45.2018 18.1325 45.6386 18.3135C46.0754 18.4944 46.5435 18.5875 47.0163 18.5875C47.971 18.5875 48.8867 18.2082 49.5618 17.5331C50.237 16.858 50.6162 15.9423 50.6162 14.9875C50.6162 14.0327 50.237 13.117 49.5618 12.4419C48.8867 11.7668 47.971 11.3875 47.0163 11.3875ZM31.0038 15.595C28.9603 15.5631 26.9309 15.9381 25.0337 16.698C23.1365 17.458 21.4094 18.5878 19.9531 20.0216C18.4967 21.4554 17.3401 23.1646 16.5507 25.0497C15.7612 26.9348 15.3546 28.9581 15.3546 31.0019C15.3546 33.0456 15.7612 35.0689 16.5507 36.954C17.3401 38.8391 18.4967 40.5483 19.9531 41.9822C21.4094 43.416 23.1365 44.5458 25.0337 45.3057C26.9309 46.0657 28.9603 46.4406 31.0038 46.4088C35.0483 46.3456 38.9058 44.6947 41.7437 41.8122C44.5815 38.9297 46.1721 35.0469 46.1721 31.0019C46.1721 26.9569 44.5815 23.074 41.7437 20.1916C38.9058 17.3091 35.0483 15.6581 31.0038 15.595ZM31.0038 20.9988C33.6562 20.9988 36.2001 22.0525 38.0757 23.928C39.9513 25.8036 41.005 28.3475 41.005 31C41.005 33.6525 39.9513 36.1964 38.0757 38.072C36.2001 39.9475 33.6562 41.0013 31.0038 41.0013C28.3513 41.0013 25.8074 39.9475 23.9318 38.072C22.0562 36.1964 21.0025 33.6525 21.0025 31C21.0025 28.3475 22.0562 25.8036 23.9318 23.928C25.8074 22.0525 28.3513 20.9988 31.0038 20.9988Z" fill="black"/>
<path d="M18.6245 0.930274L18.6251 0.930247C21.8283 0.787549 22.8567 0.750023 30.9925 0.75L18.6245 0.930274ZM18.6245 0.930274C15.4033 1.08133 13.1977 1.58816 11.2607 2.3415C9.2257 3.10714 7.38238 4.30775 5.85943 5.8595C4.30869 7.38316 3.10827 9.22618 2.34156 11.2605C1.58823 13.1937 1.07756 15.4032 0.930262 18.6135L0.930247 18.6139M18.6245 0.930274L0.930247 18.6139M0.930247 18.6139C0.787506 21.8256 0.75 22.8498 0.75 31.0038C0.75 39.1502 0.787505 40.1744 0.930247 43.3786L0.930275 43.3792M0.930247 18.6139L0.930275 43.3792M0.930275 43.3792C1.08136 46.5974 1.58839 48.8033 2.34201 50.7406L2.34207 50.7408M0.930275 43.3792L2.34207 50.7408M2.34207 50.7408C3.12237 52.7429 4.16433 54.4453 5.85927 56.1403M2.34207 50.7408L5.85927 56.1403M11.3463 59.425C13.2587 60.1675 15.4338 60.6737 18.6287 60.82M11.3463 59.425C9.37375 58.66 7.70125 57.6325 6.03625 55.9637M11.3463 59.425L11.2558 59.6581C11.2558 59.6581 11.2558 59.6581 11.2559 59.6581M11.3463 59.425L11.2559 59.6581M18.6287 60.82L2.575 50.65C3.34375 52.6225 4.3675 54.295 6.03625 55.9637M18.6287 60.82C21.8313 60.9625 22.8512 61 31 61C39.1488 61 40.165 60.9625 43.3675 60.82H18.6287ZM6.03625 55.9637L5.85927 56.1403M6.03625 55.9637L5.85947 56.1405C5.85941 56.1405 5.85934 56.1404 5.85927 56.1403M11.2559 59.6581C13.1966 60.4115 15.3986 60.9224 18.6173 61.0697L18.6176 61.0698C21.8256 61.2125 22.8498 61.25 31 61.25C39.1502 61.25 40.1707 61.2125 43.3786 61.0698L43.3792 61.0697C46.5929 60.9187 48.8061 60.4118 50.7432 59.6585M11.2559 59.6581L50.7432 59.6585M50.7432 59.6585C52.7772 58.8923 54.6195 57.6914 56.1415 56.1396C57.836 54.4448 58.8777 52.7426 59.6579 50.7408L59.6581 50.7402C60.4078 48.8034 60.9186 46.5977 61.0697 43.3792L61.0698 43.3786C61.2125 40.1744 61.25 39.1502 61.25 31C61.25 22.8498 61.2125 21.8256 61.0698 18.6176L61.0697 18.617C60.9187 15.4031 60.408 13.1939 59.6586 11.261C58.892 9.22645 57.6916 7.38328 56.1407 5.85959C54.6181 4.30722 52.7747 3.10649 50.7393 2.34148C48.7988 1.58826 46.5894 1.07757 43.3752 0.930262L43.3749 0.930247C40.1684 0.787571 39.1474 0.750035 31.0038 0.75C31.0025 0.75 31.0013 0.75 31 0.75L50.7432 59.6585ZM28.0613 6.6575V6.65019C22.6899 6.6549 21.6124 6.69313 18.8915 6.81848C15.9939 6.95222 14.4345 7.43397 13.4021 7.83666L13.4016 7.83685C12.0311 8.36818 11.0632 8.99789 10.038 10.023C9.01275 11.0483 8.3793 12.0201 7.84801 13.3868L7.84791 13.3871C7.44526 14.4194 6.9635 15.9825 6.82975 18.88C6.6875 22.0355 6.6575 22.976 6.6575 30.985C6.6575 38.9977 6.6875 39.942 6.82975 43.0975L6.82975 43.0975C6.95975 45.9947 7.44514 47.558 7.84433 48.5871L7.84572 48.5907L7.8457 48.5907C8.31543 49.8594 9.06362 51.0066 10.0352 51.948L10.0406 51.9532L10.0405 51.9533C10.9825 52.9224 12.1296 53.6681 13.3977 54.1354L13.4021 54.1371L13.4021 54.1371C14.4344 54.5398 15.9938 55.0215 18.8913 55.1553C18.8913 55.1553 18.8914 55.1553 18.8915 55.1553L18.88 55.405C22.0413 55.5475 22.9938 55.5813 31.0038 55.5813L28.0613 6.6575ZM28.0613 6.6575H28.3113M28.0613 6.6575H28.3113M28.3113 6.6575H31.0038C39.013 6.6575 39.957 6.68376 43.1122 6.82973L43.1125 6.82975M28.3113 6.6575L43.1125 6.82975M43.1125 6.82975C46.0096 6.95975 47.573 7.44512 48.6061 7.84444L43.1125 6.82975ZM59.425 50.65C60.1637 48.7412 60.67 46.5625 60.82 43.3675C60.9625 40.1688 61 39.1488 61 31C61 22.8512 60.9625 21.8313 60.82 18.6287L59.425 50.65ZM47.0163 11.1375C46.5107 11.1375 46.01 11.2371 45.5429 11.4306C45.0758 11.624 44.6514 11.9076 44.2939 12.2651C43.9364 12.6226 43.6528 13.0471 43.4593 13.5142C43.2658 13.9813 43.1662 14.4819 43.1662 14.9875C43.1662 15.4931 43.2658 15.9937 43.4593 16.4608C43.6528 16.9279 43.9364 17.3524 44.2939 17.7099C44.6514 18.0674 45.0758 18.351 45.5429 18.5444C46.01 18.7379 46.5107 18.8375 47.0163 18.8375C48.0373 18.8375 49.0166 18.4319 49.7386 17.7099C50.4606 16.9878 50.8662 16.0086 50.8662 14.9875C50.8662 13.9664 50.4606 12.9872 49.7386 12.2651C49.0166 11.5431 48.0373 11.1375 47.0163 11.1375ZM31.0077 15.345C28.931 15.3126 26.8687 15.6937 24.9407 16.466C23.0127 17.2382 21.2577 18.3864 19.7777 19.8434C18.2977 21.3005 17.1223 23.0375 16.3201 24.9532C15.5178 26.8688 15.1046 28.925 15.1046 31.0019C15.1046 33.0788 15.5178 35.1349 16.3201 37.0506C17.1223 38.9663 18.2977 40.7032 19.7777 42.1603C21.2577 43.6174 23.0127 44.7655 24.9407 45.5378C26.8687 46.3101 28.931 46.6911 31.0077 46.6587C35.1178 46.5946 39.0379 44.9168 41.9218 41.9876C44.8057 39.0583 46.4221 35.1125 46.4221 31.0019C46.4221 26.8912 44.8057 22.9454 41.9218 20.0162C39.0379 17.0869 35.1178 15.4092 31.0077 15.345ZM31.0038 21.2488C33.5899 21.2488 36.0702 22.2761 37.8989 24.1048C39.7276 25.9335 40.755 28.4138 40.755 31C40.755 33.5862 39.7276 36.0665 37.8989 37.8952C36.0702 39.7239 33.5899 40.7513 31.0038 40.7513C28.4176 40.7513 25.9373 39.7239 24.1086 37.8952C22.2799 36.0665 21.2525 33.5862 21.2525 31C21.2525 28.4138 22.2799 25.9335 24.1086 24.1048C25.9373 22.2761 28.4176 21.2488 31.0038 21.2488Z" stroke="black" stroke-opacity="0.32" stroke-width="0.5"/>
</svg>
