<svg width="52" height="42" viewBox="0 0 52 42" fill="none" xmlns="http://www.w3.org/2000/svg">
<path d="M16.2962 41C35.165 41 45.4868 25.607 45.4868 12.2815C45.4868 11.8508 45.4868 11.4139 45.4681 10.9831C47.4776 9.55086 49.212 7.77762 50.59 5.7465C48.7128 6.56138 46.7236 7.09844 44.6868 7.34026C46.8323 6.07767 48.4391 4.0911 49.2087 1.74979C47.1931 2.92549 44.9869 3.75083 42.6868 4.18965C41.1405 2.56828 39.0943 1.49416 36.8652 1.13369C34.6361 0.773213 32.3485 1.1465 30.3566 2.19572C28.3648 3.24495 26.78 4.91155 25.8476 6.93739C24.9153 8.96322 24.6874 11.2352 25.1993 13.4015C21.1204 13.2001 17.13 12.1568 13.487 10.3393C9.84393 8.52179 6.6296 5.97062 4.05247 2.85126C2.74415 5.07602 2.34488 7.70762 2.93573 10.2117C3.52659 12.7158 5.06326 14.9046 7.23372 16.3336C5.60728 16.2792 4.01659 15.8492 2.58997 15.0783V15.2168C2.59277 17.5473 3.4128 19.8055 4.91145 21.6095C6.41009 23.4136 8.49543 24.6528 10.815 25.1178C9.93454 25.3566 9.02506 25.4756 8.11184 25.4716C7.46804 25.4735 6.82553 25.4148 6.19309 25.2962C6.84867 27.3024 8.12519 29.0565 9.84386 30.3128C11.5625 31.5691 13.6373 32.2646 15.7775 32.302C12.1417 35.1135 7.65059 36.6384 3.02747 36.631C2.21284 36.6344 1.39879 36.5882 0.589966 36.4925C5.2822 39.4378 10.7315 41.0017 16.2962 41Z" fill="white"/>
<path d="M45.7547 6.93203C47.3841 6.65009 48.9743 6.17533 50.4904 5.51717L51.2803 5.1743L50.7969 5.88685C49.4273 7.90554 47.7101 9.67236 45.7232 11.1078C45.7368 11.4997 45.7368 11.8943 45.7368 12.279V12.2815C45.7368 25.7184 35.3282 41.25 16.2963 41.25L45.7547 6.93203ZM45.7547 6.93203C47.4808 5.6504 48.7745 3.87131 49.4462 1.82785L49.652 1.2018L49.0828 1.53384C47.1304 2.67263 44.9969 3.47874 42.7723 3.91838C41.1998 2.31234 39.1421 1.24864 36.9051 0.886893C34.6227 0.51779 32.2801 0.899951 30.2401 1.97453C28.2001 3.04915 26.5761 4.75651 25.6205 6.83287C24.7114 8.80816 24.4557 11.0121 24.8848 13.1338C20.9541 12.8958 17.1132 11.8691 13.5986 10.1156C9.98659 8.31357 6.79995 5.78429 4.2452 2.69203L4.01788 2.41689L3.83697 2.72454C2.49613 5.0046 2.08673 7.70214 2.69242 10.2691C3.22967 12.546 4.5296 14.5678 6.36809 16.0172C5.08697 15.8645 3.84455 15.4721 2.70882 14.8584L2.33997 14.659V15.0783L2.33997 15.2168L2.33997 15.2171C2.34284 17.6063 3.18354 19.9208 4.71914 21.7693C6.02564 23.342 7.76687 24.4953 9.72017 25.0976C9.18942 25.1824 8.65185 25.224 8.11294 25.2216L8.11109 25.2216C7.48299 25.2235 6.85615 25.1662 6.23916 25.0505L5.82438 24.9727L5.95546 25.3739C6.62747 27.4304 7.93575 29.2277 9.69633 30.5146C11.2684 31.6638 13.131 32.3547 15.0721 32.5166C11.5829 35.0304 7.36438 36.388 3.02787 36.381L3.02643 36.381C2.22196 36.3843 1.41805 36.3387 0.619311 36.2443L0.457057 36.7043C5.1893 39.6747 10.6847 41.2517 16.2962 41.25L45.7547 6.93203Z" stroke="black" stroke-opacity="0.32" stroke-width="0.5"/>
</svg>
