<svg width="64" height="62" viewBox="0 0 64 62" fill="none" xmlns="http://www.w3.org/2000/svg">
<path d="M20.8475 61C43.49 61 55.8762 37.9105 55.8762 17.9223C55.8762 17.2762 55.8763 16.6208 55.8538 15.9747C58.2652 13.8263 60.3465 11.1664 62 8.11974C59.7474 9.34206 57.3604 10.1477 54.9163 10.5104C57.4907 8.61651 59.419 5.63665 60.3425 2.12468C57.9237 3.88823 55.2763 5.12624 52.5163 5.78448C50.6607 3.35241 48.2053 1.74124 45.5303 1.20053C42.8554 0.65982 40.1102 1.21975 37.72 2.79358C35.3298 4.36742 33.428 6.86733 32.3092 9.90608C31.1903 12.9448 30.9169 16.3528 31.5312 19.6022C26.6365 19.3002 21.8481 17.7352 17.4764 15.009C13.1048 12.2827 9.24757 8.45593 6.155 3.7769C4.58503 7.11403 4.1059 11.0614 4.81492 14.8175C5.52394 18.5736 7.36796 21.8568 9.9725 24.0004C8.02077 23.9188 6.11195 23.2738 4.4 22.1175V22.3251C4.40337 25.821 5.3874 29.2083 7.18578 31.9143C8.98415 34.6203 11.4866 36.4792 14.27 37.1767C13.2135 37.5349 12.1221 37.7134 11.0262 37.7074C10.2537 37.7103 9.48268 37.6222 8.72375 37.4443C9.51045 40.4537 11.0423 43.0848 13.1047 44.9692C15.1671 46.8536 17.6568 47.8969 20.225 47.953C15.8621 52.1703 10.4728 54.4576 4.925 54.4465C3.94745 54.4516 2.97059 54.3822 2 54.2388C7.63068 58.6567 14.1699 61.0025 20.8475 61Z" fill="black"/>
<path d="M20.8475 61.25C32.265 61.25 41.0921 55.4249 47.056 47.1023C53.0164 38.7847 56.1262 27.9631 56.1262 17.9223V17.9197C56.1262 17.3138 56.1262 16.6954 56.1074 16.0832C58.5049 13.928 60.5734 11.2724 62.2197 8.23899L62.622 7.49779L61.8808 7.90001C59.9474 8.94914 57.915 9.68722 55.8337 10.0982C58.0732 8.16636 59.7421 5.39081 60.5843 2.18826L60.763 1.50871L60.1952 1.92267C57.8476 3.63434 55.2847 4.84404 52.615 5.50326C50.7393 3.10123 48.2733 1.49995 45.5799 0.955487C42.8368 0.401011 40.0248 0.976621 37.5825 2.58478C35.142 4.1918 33.2093 6.7377 32.0746 9.8197C30.9762 12.803 30.6817 16.1346 31.2285 19.3312C26.488 18.9849 21.8521 17.4431 17.6087 14.7968C13.2701 12.0912 9.43811 8.29082 6.36356 3.63905L6.11821 3.26783L5.92878 3.67047C4.33555 7.05704 3.85086 11.0581 4.56926 14.8639C5.23464 18.3888 6.8883 21.5128 9.23907 23.6914C7.596 23.4981 5.99675 22.8943 4.53993 21.9103L4.15 21.6469V22.1175V22.3251V22.3254C4.15341 25.8665 5.1499 29.3025 6.97756 32.0527C8.62695 34.5345 10.8657 36.325 13.3825 37.1761C12.6075 37.3674 11.8186 37.4617 11.0276 37.4574L11.0253 37.4574C10.2724 37.4602 9.52089 37.3744 8.78079 37.2009L8.37698 37.1063L8.48188 37.5076C9.27935 40.5581 10.8341 43.2332 12.936 45.1538C14.8812 46.931 17.2057 47.9801 19.6283 48.173C15.385 52.0939 10.2245 54.2071 4.9255 54.1965L4.9237 54.1965C3.95886 54.2015 2.99465 54.1331 2.03654 53.9915L1.10424 53.8538L1.84568 54.4355C7.51703 58.8853 14.1097 61.2526 20.8475 61.25ZM20.8475 61.25V61M20.8475 61.25V61M20.8475 61C14.3259 61.0025 7.93643 58.7651 2.39628 54.5452L55.8538 15.9747C55.8762 16.6207 55.8762 17.276 55.8762 17.922V17.9223C55.8762 37.9105 43.49 61 20.8475 61Z" stroke="black" stroke-opacity="0.32" stroke-width="0.5"/>
</svg>
