<svg width="62" height="61" viewBox="0 0 62 61" fill="none" xmlns="http://www.w3.org/2000/svg">
<path d="M31.1931 0.5H31.5269C34.6096 0.516016 50.2293 0.676173 54.4408 2.28842C55.714 2.78046 56.8742 3.73955 57.8054 5.06984C58.7366 6.40014 59.4063 8.05503 59.7474 9.86916C60.1262 11.8978 60.3925 14.5831 60.5725 17.3538L60.61 17.909L60.6925 19.297L60.7225 19.8523C60.9662 24.7317 60.9962 29.3015 61 30.2998V30.7002C60.9962 31.7359 60.9625 36.6153 60.6925 41.6976L60.6625 42.2582L60.6287 42.8134C60.4412 45.867 60.1637 48.8993 59.7474 51.1308C59.4073 52.9457 58.738 54.6014 57.8066 55.9319C56.8753 57.2624 55.7145 58.221 54.4408 58.7116C50.0906 60.3772 33.5558 60.4947 31.2644 60.5H30.7319C29.573 60.5 24.7802 60.468 19.7549 60.2224L19.1174 60.1904L18.7911 60.169L18.1498 60.1316L17.5085 60.0943C13.3458 59.8327 9.38177 59.4109 7.55541 58.7062C6.28217 58.2161 5.12175 57.2583 4.19042 55.9288C3.25908 54.5993 2.58952 52.9447 2.24883 51.1308C1.83255 48.9047 1.55503 45.867 1.36752 42.8134L1.33752 42.2528L1.30752 41.6976C1.12244 38.0802 1.01988 34.4552 1 30.8283L1 30.1717C1.0075 29.0239 1.0375 25.0573 1.24002 20.6797L1.26627 20.1299L1.27752 19.8523L1.30752 19.297L1.39002 17.909L1.42753 17.3538C1.60754 14.5831 1.8738 11.8925 2.25258 9.86916C2.5927 8.05431 3.262 6.39862 4.19337 5.06811C5.12475 3.73759 6.28547 2.77899 7.55916 2.28842C9.38552 1.5944 13.3495 1.16732 17.5123 0.900391L18.1498 0.863021L18.7949 0.830991L19.1174 0.814975L19.7587 0.777606C23.3278 0.61411 26.8984 0.523345 30.4693 0.505339H31.1931V0.5ZM25.0015 17.6368V43.3579L40.5912 30.5027L25.0015 17.6368Z" fill="black"/>
<path d="M30.9431 0.25H31.1931H31.5269H31.5282C33.071 0.258019 37.7509 0.302089 42.5732 0.545942C44.9841 0.667857 47.4336 0.839854 49.5459 1.0827C51.6503 1.32465 53.4447 1.6394 54.5302 2.05494L54.531 2.05522C55.8586 2.56833 57.056 3.56338 58.0102 4.92648C58.9644 6.28962 59.6463 7.97868 59.9931 9.82296L59.9932 9.82328C60.3747 11.8666 60.6417 14.5635 60.8219 17.3371C60.8219 17.3373 60.8219 17.3374 60.8219 17.3376L60.8594 17.8922L60.8595 17.8942L60.942 19.2822L60.9421 19.2836L60.9721 19.8388L60.9722 19.8398C61.2162 24.7249 61.2462 29.2991 61.25 30.2989V30.2998V30.7002V30.7011C61.2462 31.7383 61.2125 36.6225 60.9421 41.7109L60.9421 41.711L60.9121 42.2715L60.912 42.2733L60.8783 42.8285L60.8783 42.8287C60.6906 45.8843 60.4124 48.9293 59.9932 51.1767L59.9931 51.1769C59.6474 53.0219 58.9658 54.7118 58.0114 56.0753C57.0571 57.4386 55.859 58.4333 54.5307 58.9449L54.5302 58.9451C53.4094 59.3742 51.5311 59.6962 49.3342 59.9414C47.1291 60.1876 44.577 60.3589 42.0925 60.4781C37.1232 60.7166 32.4123 60.7473 31.265 60.75H31.2644H30.7319C29.5707 60.75 24.7735 60.7179 19.7427 60.4721L19.7424 60.4721L19.1048 60.44L19.101 60.4399L19.1011 60.4398L18.7766 60.4186L18.7748 60.4185L18.1353 60.3812L17.494 60.3438L17.4929 60.3438C15.4088 60.2128 13.371 60.0416 11.6236 59.8143C9.88233 59.5879 8.4088 59.3035 7.46542 58.9395M30.9431 0.25L7.55541 58.7062M30.9431 0.25V0.255339L30.4693 0.255336L30.4681 0.255342C26.8937 0.273365 23.3197 0.364217 19.7472 0.527848L19.7441 0.528029L19.105 0.565283L19.1174 0.814975M30.9431 0.25L30.4693 0.505339M7.46542 58.9395L7.55541 58.7062M7.46542 58.9395C7.46548 58.9395 7.46554 58.9395 7.4656 58.9396L7.55541 58.7062M7.46542 58.9395C6.13762 58.4283 4.93996 57.4346 3.98566 56.0722C3.03128 54.7098 2.34949 53.021 2.00312 51.177L2.00309 51.1768C1.58383 48.9347 1.30562 45.8843 1.11799 42.8287L1.11787 42.8267L1.08789 42.2663L1.33752 42.2528M7.55541 58.7062C6.28217 58.2161 5.12175 57.2583 4.19042 55.9288C3.25908 54.5993 2.58952 52.9447 2.24883 51.1308C1.83255 48.9047 1.55503 45.867 1.36752 42.8134L1.33752 42.2528M1.33752 42.2528L1.08788 42.2662L1.05788 41.7111L1.05784 41.7104C0.872568 38.0892 0.7699 34.4604 0.750004 30.8297L0.749996 30.8283L0.75 30.1717V30.17L0.750005 30.17C0.757511 29.0214 0.787535 25.0509 0.990282 20.6682L0.990299 20.6678H0.990299L1.01647 20.1197L1.26627 20.1299M1.33752 42.2528L1.30752 41.6976C1.12244 38.0802 1.01988 34.4552 1 30.8283V30.1717C1.0075 29.0239 1.0375 25.0573 1.24002 20.6797L1.26627 20.1299M59.7474 51.1308C60.1637 48.8993 60.4412 45.867 60.6287 42.8134L60.6625 42.2582L60.6925 41.6976C60.9625 36.6153 60.9962 31.7359 61 30.7002V30.2998C60.9962 29.3015 60.9662 24.7317 60.7225 19.8523L60.6925 19.297L60.61 17.909L60.5725 17.3538C60.3925 14.5831 60.1262 11.8978 59.7474 9.86916V51.1308ZM59.7474 51.1308C59.4073 52.9457 58.738 54.6014 57.8066 55.9319M59.7474 51.1308L57.8066 55.9319M30.4693 0.505339C26.8984 0.523345 23.3278 0.61411 19.7587 0.777606L19.1174 0.814975M30.4693 0.505339H30.9431H30.4693ZM19.1174 0.814975L18.7949 0.830991L18.1498 0.863021L17.5123 0.900391C13.3495 1.16732 9.38552 1.5944 7.55916 2.28842C6.28547 2.77899 5.12475 3.73759 4.19337 5.06811C3.262 6.39862 2.5927 8.05431 2.25258 9.86916C1.8738 11.8925 1.60754 14.5831 1.42753 17.3538M19.1174 0.814975L19.1028 0.565399L18.7825 0.581299L18.1374 0.613319L18.1352 0.61345L17.4977 0.650816L17.4963 0.650903C15.4122 0.784542 13.3745 0.958467 11.6272 1.18635C9.886 1.41344 8.41309 1.69648 7.47036 2.05472L7.46931 2.05512C6.14097 2.56674 4.94294 3.56136 3.98857 4.92474C3.03416 6.28816 2.35264 7.97806 2.00686 9.82311L2.00685 9.82316C1.6253 11.8613 1.35828 14.5637 1.17807 17.3373L1.1781 17.337L1.42753 17.3538M1.42753 17.3538L1.17805 17.3376L1.14059 17.8922L1.14058 17.8922L1.14046 17.8942L1.05796 19.2822H1.05796L1.05788 19.2836L1.02788 19.8388L1.02786 19.8388L1.02772 19.8421L1.01655 20.1179L1.26627 20.1299M1.42753 17.3538L1.39002 17.909L1.30752 19.297L1.27752 19.8523L1.26627 20.1299M57.8066 55.9319C56.8753 57.2624 55.7145 58.221 54.4408 58.7116L57.8066 55.9319ZM31.5269 0.5C34.6096 0.516016 50.2293 0.676173 54.4408 2.28842L31.1931 0.5H31.4431H31.5269ZM25.2515 18.1672L40.1984 30.5026L25.2515 42.8277V18.1672Z" stroke="black" stroke-opacity="0.32" stroke-width="0.5"/>
</svg>
