<svg width="52" height="36" viewBox="0 0 52 36" fill="none" xmlns="http://www.w3.org/2000/svg">
<path d="M25.7509 0.5H26.0291C28.598 0.509342 41.6144 0.602768 45.124 1.54324C46.185 1.83027 47.1518 2.38974 47.9278 3.16574C48.7038 3.94175 49.2619 4.9071 49.5462 5.96534C49.8618 7.14872 50.0837 8.71514 50.2337 10.3314L50.2649 10.6553L50.3337 11.4649L50.3587 11.7888C50.5618 14.6352 50.5868 17.3009 50.59 17.8832V18.1168C50.5868 18.7209 50.5587 21.5673 50.3337 24.5319L50.3087 24.8589L50.2806 25.1828C50.1243 26.9641 49.8931 28.7329 49.5462 30.0347C49.2627 31.0933 48.705 32.0591 47.9288 32.8353C47.1527 33.6114 46.1854 34.1706 45.124 34.4568C41.4988 35.4284 27.7198 35.4969 25.8103 35.5H25.3665C24.4008 35.5 20.4068 35.4813 16.2191 35.3381L15.6878 35.3194L15.4159 35.3069L14.8815 35.2851L14.3471 35.2633C10.8781 35.1107 7.57478 34.8647 6.05281 34.4536C4.99177 34.1677 4.02476 33.609 3.24865 32.8335C2.47253 32.0579 1.91457 31.0927 1.63066 30.0347C1.28376 28.7361 1.05249 26.9641 0.896235 25.1828L0.871233 24.8558L0.846232 24.5319C0.691996 22.4218 0.606529 20.3072 0.589966 18.1915L0.589966 17.8085C0.596216 17.1389 0.621218 14.8251 0.789978 12.2715L0.811855 11.9508L0.82123 11.7888L0.846232 11.4649L0.914986 10.6553L0.946238 10.3314C1.09625 8.71514 1.31814 7.14561 1.63378 5.96534C1.91722 4.90668 2.47497 3.94086 3.25111 3.16473C4.02726 2.38859 4.99452 1.82941 6.05593 1.54324C7.5779 1.1384 10.8812 0.889269 14.3502 0.733561L14.8815 0.711762L15.419 0.693078L15.6878 0.683736L16.2222 0.661937C19.1965 0.566564 22.172 0.513618 25.1478 0.503114H25.7509V0.5ZM20.5912 10.4964V25.5004L33.5827 18.0016L20.5912 10.4964Z" fill="white"/>
<path d="M25.7509 0.25H25.5009V0.253114L25.1478 0.253113L25.1469 0.253116C22.1687 0.263628 19.1908 0.316616 16.2142 0.412056L16.212 0.412144L15.6791 0.433887L15.6776 0.433943L15.4103 0.443229L14.8728 0.461913L14.8728 0.461908L14.8712 0.461973L14.34 0.48377L14.339 0.483813C10.8785 0.639141 7.5452 0.888407 5.99167 1.30164L5.99085 1.30186C4.88727 1.5994 3.88147 2.18083 3.07434 2.98795C2.2672 3.79508 1.68709 4.79955 1.39229 5.90069L1.39227 5.90075C1.07118 7.10136 0.847779 8.68723 0.697352 10.3078C0.697338 10.308 0.697323 10.3081 0.697308 10.3083L0.666142 10.6313L0.666126 10.6312L0.665883 10.6341L0.597128 11.4438L0.597121 11.4438L0.596973 11.4457L0.571972 11.7696L0.571926 11.7696L0.571648 11.7744L0.562434 11.9337L0.562273 11.9363L0.540557 12.2545L0.540522 12.255C0.371284 14.8159 0.346239 17.1354 0.339977 17.8061H0.339966V17.8085L0.339958 18.1915L0.339973 18.1935C0.356579 20.3146 0.442265 22.4346 0.596895 24.5502L0.596973 24.5512L0.621961 24.8749L0.621975 24.8751L0.646947 25.2019L0.647191 25.2046C0.803707 26.9889 1.03638 28.7787 1.38912 30.0992L1.3892 30.0994C1.6845 31.2 2.26483 32.2038 3.07193 33.0103L3.24865 32.8335L3.07193 33.0103C3.879 33.8168 4.88448 34.3977 5.98762 34.695C7.54187 35.1148 10.876 35.3609 14.3361 35.5131L14.3369 35.5131L14.8713 35.5349L15.4044 35.5567L15.4057 35.5567L15.6763 35.5691L15.679 35.5692L16.2103 35.5879L16.2105 35.5879C20.4021 35.7313 24.3992 35.75 25.3665 35.75H25.8103H25.8107C26.7666 35.7484 30.6917 35.7305 34.8321 35.5914C36.9022 35.5219 39.0282 35.422 40.8648 35.2785C42.6952 35.1354 44.2574 34.9478 45.1887 34.6982L45.1891 34.6981C46.2927 34.4006 47.2985 33.8192 48.1056 33.0121C48.9127 32.2049 49.4928 31.2005 49.7876 30.0993L49.7877 30.099C50.1404 28.7755 50.3731 26.989 50.5296 25.2046L50.5296 25.2044L50.5578 24.8806L50.558 24.878L50.583 24.551L50.583 24.5509C50.8087 21.5775 50.8368 18.7244 50.84 18.1181V18.1168L50.84 17.8832L50.84 17.8819C50.8368 17.2975 50.8118 14.6254 50.6081 11.771L50.608 11.7696L50.583 11.4457L50.5828 11.4438L50.5141 10.6341L50.5138 10.6312L50.4826 10.3083C50.3322 8.68742 50.1088 7.1046 49.7877 5.90091L49.7876 5.90048C49.4919 4.79984 48.9115 3.79591 48.1046 2.98897C47.2976 2.18203 46.2924 1.60033 45.1893 1.30192L45.1887 1.30176C44.2868 1.06007 42.7944 0.876695 41.0411 0.735593C39.2819 0.59401 37.2414 0.493708 35.2326 0.422603C31.2148 0.280382 27.3154 0.254676 26.03 0.25H26.0291H25.7509ZM20.8412 10.9296L33.0827 18.0015L20.8412 25.0675V10.9296Z" stroke="black" stroke-opacity="0.32" stroke-width="0.5"/>
</svg>
