<svg width="52" height="52" viewBox="0 0 52 52" fill="none" xmlns="http://www.w3.org/2000/svg">
<path d="M50.59 26.1531C50.59 12.2611 39.3976 1 25.5931 1C11.7823 1.00312 0.589966 12.2611 0.589966 26.1562C0.589966 38.7078 9.73257 49.1127 21.6811 51V33.4241H15.3381V26.1562H21.6873V20.6101C21.6873 14.3077 25.4212 10.8269 31.1299 10.8269C33.8671 10.8269 36.7261 11.3175 36.7261 11.3175V17.5042H33.5733C30.4706 17.5042 29.502 19.4446 29.502 21.4349V26.1531H36.4324L35.3262 33.421H29.4988V50.9969C41.4474 49.1096 50.59 38.7047 50.59 26.1531Z" fill="white"/>
<path d="M25.5931 0.75H25.593C11.6428 0.753156 0.339966 12.1244 0.339966 26.1562C0.339966 38.8316 9.57288 49.3406 21.6421 51.2469L21.9311 51.2926V51V33.4241V33.1741H21.6811H15.5881V26.4062H21.6873H21.9373V26.1562V20.6101C21.9373 17.5084 22.8552 15.1319 24.4452 13.5313C26.0354 11.9306 28.3265 11.0769 31.1299 11.0769C32.4851 11.0769 33.8736 11.1984 34.9256 11.3205C35.451 11.3815 35.8913 11.4424 36.2 11.4881C36.3092 11.5043 36.4019 11.5185 36.4761 11.5302V17.2542H33.5733C31.967 17.2542 30.8725 17.7588 30.1844 18.5603C29.5024 19.3548 29.252 20.4038 29.252 21.4349V26.1531V26.4031H29.502H36.1414L35.1114 33.171H29.4988H29.2488V33.421V50.9969V51.2895L29.5379 51.2438C41.607 49.3375 50.84 38.8285 50.84 26.1531C50.84 12.1245 39.5371 0.75 25.5931 0.75Z" stroke="black" stroke-opacity="0.32" stroke-width="0.5"/>
</svg>
