<svg width="375" height="191" viewBox="0 0 375 191" fill="none" xmlns="http://www.w3.org/2000/svg">
<g filter="url(#filter0_i_367_105)">
<path fill-rule="evenodd" clip-rule="evenodd" d="M0 10.8511L12.5 23.7188C25 36.5866 50 62.3222 75 58.0329C100 53.7437 125 19.4296 150 6.56181C175 -6.30598 200 2.27255 225 10.8511C250 19.4296 275 28.0081 300 36.5866C325 45.1651 350 53.7437 362.5 58.0329L375 62.3222V191H362.5C350 191 325 191 300 191C275 191 250 191 225 191C200 191 175 191 150 191C125 191 100 191 75 191C50 191 25 191 12.5 191H0V10.8511Z" fill="#477D5E"/>
</g>
<defs>
<filter id="filter0_i_367_105" x="0" y="0" width="375" height="193" filterUnits="userSpaceOnUse" color-interpolation-filters="sRGB">
<feFlood flood-opacity="0" result="BackgroundImageFix"/>
<feBlend mode="normal" in="SourceGraphic" in2="BackgroundImageFix" result="shape"/>
<feColorMatrix in="SourceAlpha" type="matrix" values="0 0 0 0 0 0 0 0 0 0 0 0 0 0 0 0 0 0 127 0" result="hardAlpha"/>
<feOffset dy="2"/>
<feGaussianBlur stdDeviation="5"/>
<feComposite in2="hardAlpha" operator="arithmetic" k2="-1" k3="1"/>
<feColorMatrix type="matrix" values="0 0 0 0 0.276563 0 0 0 0 0.491667 0 0 0 0 0.367819 0 0 0 0.3 0"/>
<feBlend mode="normal" in2="shape" result="effect1_innerShadow_367_105"/>
</filter>
</defs>
</svg>
